<?xml version="1.0" encoding="UTF-8"?>
<svg id="Layer_2" data-name="Layer 2" xmlns="http://www.w3.org/2000/svg" viewBox="0 0 68.05 60.81">
  <defs>
    <style>
      .cls-1 {
        fill: #888661;
        stroke-width: 0px;
      }
    </style>
  </defs>
  <g id="Layer_1-2" data-name="Layer 1">
    <path class="cls-1" d="m0,59.81c-.05.55.36,1,.91,1h6.44c.55,0,1.04-.45,1.09-1l2.95-33.68c.05-.55.26-.58.48-.08l14.4,33.83c.22.51.84.92,1.39.92h3.12c.55,0,1.23-.39,1.51-.86l19.8-33.56c.28-.47.47-.41.42.13l-2.92,33.29c-.05.55.36,1,.91,1h11.29c.55,0,1.04-.45,1.09-1L68.05,1c.05-.55-.36-1-.91-1h-10.68c-.55,0-1.2.4-1.46.89l-21.42,41.87c-.25.49-.6.46-.78-.06L18.42.95c-.18-.52-.78-.95-1.33-.95H6.14c-.55,0-1.04.45-1.09,1L0,59.81Z"/>
  </g>
</svg>