<?xml version="1.0" encoding="UTF-8"?>
<svg id="Layer_2" data-name="Layer 2" xmlns="http://www.w3.org/2000/svg" viewBox="0 0 135.89 132.24">
  <defs>
    <style>
      .cls-1 {
        fill: #888661;
        stroke-width: 0px;
      }
    </style>
  </defs>
  <g id="Layer_1-2" data-name="Layer 1">
    <path class="cls-1" d="m.02,61.18h7.49l2.77-35.75,13.46,35.75h4.54l18.45-35.36-2.74,35.36h11.78L60.49.24h-11.24l-19.79,43.75L16.14.24H4.65L.02,61.18ZM66.02,24.18l-3.26,37.24h12.43l3.66-41.8h-3.71l-9.12,4.56Zm14.42-18.1c.29-3.36-2.47-6.08-6.18-6.08s-6.95,2.72-7.25,6.08,2.47,6.08,6.18,6.08,6.95-2.72,7.25-6.08ZM25.21,94.86l-3.26,37.24h12.43l3.66-41.8h-3.71l-9.12,4.56Zm14.42-18.1c.29-3.36-2.47-6.08-6.18-6.08s-6.95,2.72-7.25,6.08,2.47,6.08,6.18,6.08,6.95-2.72,7.25-6.08Zm96.26-21.42c0-3.36-3.01-6.08-6.71-6.08s-6.71,2.72-6.71,6.08,3.01,6.08,6.71,6.08,6.71-2.72,6.71-6.08Zm-18.1-12.31c-1.11-.3-2.25.39-2.49,1.52-.97,4.65-3.66,8.13-7.33,8.77-5.51.97-11.13-4.83-12.55-12.94-1.42-8.11,1.89-15.47,7.4-16.44,3.62-.63,7.29,1.66,9.78,5.6.63,1,1.99,1.24,2.93.52l2.75-2.11c.95-.73,1.08-2.15.23-3-3.36-3.36-8-6.18-13.8-6.37-8-.27-15.69,4.54-19.88,12.19-.04.08-.08.16-.12.24-.83,2.04-1.95,5.53-1.82,9.94.04,1.41.19,4.82,1.75,8.35,3.14,7.14,10.19,12.11,18.38,12.11,9.28,0,17.08-6.39,19.4-15.07.29-1.07-.37-2.17-1.44-2.46l-3.2-.85ZM0,132.1h12.36l5.41-61.84h-3.72l-9.04,4.56L0,132.1Zm61.6.04h5.64l23.78-41.78.04-.11h-8.48l-14.34,24.96-9.81-24.96h-13l16.18,41.88Zm65.21-15.61c.38-.81,1.25-1.28,2.14-1.13l2.01.33c1.2.2,1.99,1.42,1.59,2.58-2.77,8.09-10.55,13.93-19.77,13.93-11.54,0-20.9-9.14-20.9-20.41v-1.94s0,0,0,0c0-11.27,9.36-20.41,20.9-20.41,9.65,0,17.75,6.39,20.15,15.06.35,1.28-.61,2.55-1.94,2.55h-13.71s-3.15,0-3.15,0h-8.09c-1.22,0-2.14,1.08-1.99,2.29.13,1.06.34,2.15.63,3.26,1.24,4.78,3.44,8.41,5.84,10.03,1.13.92,3.01,1.49,5.12,1.43,1.26-.04,2.41-.3,3.37-.72.35-.11.73-.25,1.13-.43.43-.19.82-.4,1.15-.6.02,0,.03-.02.05-.03.3-.15.67-.37,1.07-.65.4-.28.74-.55.98-.78.71-.56,1.46-1.32,2.16-2.26.52-.71.95-1.43,1.26-2.1Zm-22.49-15c-.18.67.34,1.34,1.03,1.34h11.39c.7,0,1.22-.67,1.03-1.34-1.07-3.97-3.68-6.78-6.73-6.78s-5.65,2.81-6.73,6.78Z"/>
  </g>
</svg>