<?xml version="1.0" encoding="UTF-8"?>
<svg id="Layer_2" data-name="Layer 2" xmlns="http://www.w3.org/2000/svg" viewBox="0 0 281.05 61.84">
  <defs>
    <style>
      .cls-1 {
        fill: #888661;
        stroke-width: 0px;
      }
    </style>
  </defs>
  <g id="Layer_1-2" data-name="Layer 1">
    <g>
      <path class="cls-1" d="m0,60.71c-.05.55.36,1,.91,1h6.44c.55,0,1.04-.45,1.09-1,.98-11.23,1.97-22.45,2.95-33.68.05-.55.26-.58.48-.08,4.8,11.28,9.6,22.55,14.4,33.83.22.51.84.92,1.39.92h3.12c.55,0,1.23-.39,1.51-.86,6.6-11.19,13.2-22.37,19.8-33.56.28-.47.47-.41.42.13-.97,11.1-1.95,22.19-2.92,33.29-.05.55.36,1,.91,1h11.29c.55,0,1.04-.45,1.09-1,1.72-19.6,3.44-39.21,5.16-58.81.05-.55-.36-1-.91-1h-10.68c-.55,0-1.2.4-1.46.89-7.14,13.96-14.28,27.91-21.42,41.87-.25.49-.6.46-.78-.06C28.01,29.68,23.21,15.76,18.42,1.84c-.18-.52-.78-.95-1.33-.95H6.14c-.55,0-1.04.45-1.09,1C3.37,21.5,1.69,41.1,0,60.71Z"/>
      <path class="cls-1" d="m76.55,24.1c-.49.25-.93.89-.98,1.44-1.03,11.72-2.06,23.44-3.08,35.17-.05.55.36,1,.91,1h10.43c.55,0,1.04-.45,1.09-1,1.16-13.24,2.32-26.48,3.48-39.71.05-.55-.36-1-.91-1h-1.71c-.55,0-1.4.2-1.89.45-2.93,1.46-4.4,2.19-7.33,3.66Z"/>
      <ellipse class="cls-1" cx="83.36" cy="6.49" rx="6.81" ry="5.98" transform="translate(2.26 26.82) rotate(-18.52)"/>
      <path class="cls-1" d="m179.54,24.1c-.49.25-.93.89-.98,1.44-1.03,11.72-2.06,23.44-3.08,35.17-.05.55.36,1,.91,1h10.43c.55,0,1.04-.45,1.09-1,1.16-13.24,2.32-26.48,3.48-39.71.05-.55-.36-1-.91-1h-1.71c-.55,0-1.4.2-1.89.45-2.93,1.46-4.4,2.19-7.33,3.66Z"/>
      <ellipse class="cls-1" cx="186.35" cy="6.49" rx="6.81" ry="5.98" transform="translate(7.59 59.54) rotate(-18.52)"/>
      <path class="cls-1" d="m150.5,55.64c0-3.35-3.01-6.07-6.71-6.07s-6.71,2.72-6.71,6.07c0,3.35,3.01,6.07,6.71,6.07s6.71-2.72,6.71-6.07Z"/>
      <path class="cls-1" d="m127.43,43.36c-1.11-.3-2.25.39-2.49,1.52-.97,4.64-3.66,8.11-7.33,8.75-5.51.96-11.13-4.82-12.55-12.91-1.42-8.1,1.89-15.44,7.4-16.4,3.62-.63,7.29,1.65,9.78,5.59.63,1,1.99,1.24,2.93.52,1.1-.84,1.65-1.27,2.75-2.11.95-.73,1.08-2.15.23-3-3.36-3.35-8-6.16-13.8-6.36-8-.27-15.69,4.53-19.88,12.17-.04.08-.08.16-.12.24-.83,2.03-1.95,5.52-1.82,9.92.04,1.41.19,4.81,1.75,8.33,3.14,7.12,10.19,12.08,18.38,12.08,9.28,0,17.08-6.37,19.41-15.04.29-1.07-.37-2.17-1.44-2.45-1.28-.34-1.92-.51-3.2-.85Z"/>
      <path class="cls-1" d="m153.52,60.71c-.05.55.36,1,.91,1h10.36c.55,0,1.04-.45,1.09-1,1.75-19.9,3.49-39.81,5.24-59.71.05-.55-.36-1-.91-1h-1.72c-.55,0-1.4.2-1.89.45-2.9,1.46-4.35,2.19-7.25,3.65-.49.25-.93.9-.98,1.45-1.61,18.39-3.23,36.77-4.84,55.16Z"/>
      <path class="cls-1" d="m196.73,20.89c-.2-.51.09-.93.64-.93h11c.55,0,1.16.42,1.37.93,3.63,9.22,5.45,13.83,9.08,23.04.2.51.59.54.87.06,5.34-9.27,8.01-13.9,13.35-23.17.27-.48.95-.87,1.5-.87,2.59,0,3.89,0,6.48,0,.55,0,.99.02.98.05-.01.03-.24.44-.52.92-7.6,13.32-15.19,26.63-22.79,39.94-.27.48-.95.87-1.5.87h-3.64c-.55,0-1.16-.42-1.36-.93-5.15-13.31-10.3-26.61-15.46-39.92Z"/>
      <path class="cls-1" d="m279.01,45.37c-.81-.13-1.21-.2-2.02-.33-.88-.14-1.75.32-2.13,1.13-.32.67-.74,1.39-1.26,2.09-.7.94-1.45,1.7-2.16,2.26-.24.23-.59.51-.98.78-.39.27-.77.49-1.07.64-.02.01-.04.02-.05.03-.33.2-.72.4-1.15.6-.4.18-.78.32-1.12.43-.96.41-2.12.67-3.37.71-2.1.06-3.99-.5-5.12-1.42-2.41-1.62-4.59-5.24-5.84-10.01-.29-1.1-.5-2.19-.63-3.25-.15-1.21.77-2.28,1.99-2.28,9.98,0,14.96,0,24.94,0,1.33,0,2.29-1.27,1.94-2.54-2.4-8.65-10.55-15.08-20.16-15.03-11.25.06-20.71,8.93-20.9,20.36h.01c0,.78,0,1.16-.01,1.94.19,11.43,9.65,20.3,20.9,20.36,9.18.05,17.03-5.83,19.78-13.9.39-1.15-.39-2.37-1.59-2.57Zm-26.65-14.17c1.07-3.95,3.68-6.76,6.73-6.76s5.66,2.8,6.73,6.76c.18.67-.33,1.34-1.03,1.34-4.56,0-6.83,0-11.39,0-.7,0-1.22-.67-1.04-1.34Z"/>
    </g>
  </g>
</svg> 